<?xml version="1.0" standalone="no"?>
<!DOCTYPE svg PUBLIC "-//W3C//DTD SVG 20010904//EN"
 "http://www.w3.org/TR/2001/REC-SVG-20010904/DTD/svg10.dtd">
<svg version="1.0" xmlns="http://www.w3.org/2000/svg"
 width="700.000000pt" height="700.000000pt" viewBox="0 0 700.000000 700.000000"
 preserveAspectRatio="xMidYMid meet">
<metadata>
Created by potrace 1.14, written by Peter Selinger 2001-2017
</metadata>
<g transform="translate(0.000000,700.000000) scale(0.100000,-0.100000)"
fill="#000000" stroke="none">
<path d="M1295 6993 c-16 -2 -64 -11 -105 -19 -41 -9 -85 -18 -98 -20 -90 -18
-314 -113 -396 -169 -20 -14 -39 -25 -42 -25 -3 0 -10 -4 -17 -10 -7 -5 -48
-38 -92 -73 -292 -232 -475 -556 -533 -942 -4 -27 -7 -1042 -7 -2255 l0 -2205
22 -101 c64 -288 182 -516 373 -718 210 -222 478 -368 795 -433 85 -17 201
-18 2280 -18 1205 0 2220 3 2256 7 352 40 723 250 949 536 78 100 72 92 97
132 111 182 186 395 212 600 13 102 13 4351 0 4445 -13 94 -57 275 -70 292 -7
7 -9 13 -6 13 9 0 -55 147 -94 217 -95 172 -287 386 -440 491 -182 123 -379
203 -594 241 -106 19 -183 19 -2285 19 -1196 -1 -2188 -3 -2205 -5z"/>
</g>
</svg>
